<svg xmlns="http://www.w3.org/2000/svg" width="180" height="38" fill="none">
    <path fill="#BAFF24" d="M55.997 5.607v3.134h-3.126V5.607h-9.393V2.481h15.653v3.126h-3.134Zm-9.385 6.26h3.126V15h9.393v3.134H43.478V15h3.134v-3.133Zm6.26-3.126v3.126h-3.134V8.74h3.133Zm21.91-6.26v3.126h-9.384V2.481h9.385Zm0 3.126h3.134v12.527h-3.133V15h-9.385v3.134h-3.134V5.607h3.134v6.26h9.385v-6.26Zm15.66 0V15h6.26v3.134H81.05V15h6.26V5.607h-6.26V2.481h15.652v3.126h-6.26Zm15.638 9.362V8.725h3.118v6.244h-3.118Zm6.289-12.488h3.119v15.653h-3.119V8.725h-3.171V5.592h3.171v-3.11Zm-9.415 3.11h3.126v3.134h-3.126v9.409h-3.118V2.48h3.118v3.11Zm-46.957 15.89h3.134v15.652h-3.134V34h-3.126v-3.134h3.126v-9.385Zm-9.385 3.126h3.126v3.134h-3.126v9.392h-3.134V21.481h3.134v3.126Zm3.126 3.134h3.133v3.125h-3.133v-3.125Zm25.045-6.26v3.126h-9.385v-3.126h9.385Zm0 3.126h3.133v12.526h-3.133V34h-9.385v3.133h-3.134V24.607h3.134v6.26h9.385v-6.26Zm9.4 3.134h6.26v3.125h-6.26v6.267H81.05V21.481h3.133v6.26ZM93.568 34h-3.125v-3.134h3.126V34Zm3.134 3.133h-3.133V34h3.133v3.133Zm0-15.652v3.126h-3.133v-3.126h3.133Zm-3.133 3.126v3.134h-3.126v-3.134h3.126Zm18.785-3.126v3.126h-9.385v-3.126h9.385Zm0 3.126h3.134v12.526h-3.134V34h-9.385v3.133h-3.133V24.607h3.133v6.26h9.385v-6.26Zm18.786 0h3.133v3.134h-3.133v-3.134Zm3.133 12.526h-3.133V34h3.133v3.133Zm-6.259-6.267h-6.259v6.267h-3.134V21.481h12.519v3.126h-9.385v3.134h9.385V34h-3.126v-3.134Zm9.393-9.385h15.652v3.126H146.8v12.526h-3.134V24.607h-6.259v-3.126Zm18.786 0h3.133v6.26h-3.133v-6.26Zm12.518 0h3.134v6.26h-3.134v-6.26Zm-9.385 9.385v-3.125h9.385v3.125h-3.126v6.267h-3.133v-6.267h-3.126Z"/>
    <mask id="a" fill="#fff">
        <path fill-rule="evenodd" d="M7.071 2.609h20.205v3.03h4.041V9.68h3.03v20.205h-3.03v4.041h-4.041v3.03H7.07v-3.03h-4.04v-4.041H0V9.68h3.03V5.64h4.041V2.609Z" clip-rule="evenodd"/>
    </mask><path fill="none" fill-rule="evenodd" d="M7.071 2.609h20.205v3.03h4.041V9.68h3.03v20.205h-3.03v4.041h-4.041v3.03H7.07v-3.03h-4.04v-4.041H0V9.68h3.03V5.64h4.041V2.609Z" clip-rule="evenodd"/>
    <path fill="#BAFF24" d="M27.276 2.609h4.783v-4.783h-4.783V2.61Zm-20.205 0v-4.783H2.29V2.61H7.07Zm20.205 3.03h-4.783v4.783h4.783V5.64Zm4.041 0H36.1V.858h-4.783V5.64Zm0 4.041h-4.782v4.783h4.782V9.68Zm3.03 0h4.783V4.898h-4.782V9.68Zm0 20.205v4.783h4.783v-4.783h-4.782Zm-3.03 0v-4.783h-4.782v4.783h4.782Zm0 4.041v4.783H36.1v-4.783h-4.783Zm-4.041 0v-4.783h-4.783v4.783h4.783Zm0 3.03v4.783h4.783v-4.782h-4.783Zm-20.205 0H2.29v4.783H7.07v-4.782Zm0-3.03h4.783v-4.783H7.07v4.783Zm-4.04 0h-4.783v4.783h4.783v-4.783Zm0-4.041h4.783v-4.783H3.03v4.783Zm-3.031 0h-4.783v4.783H0v-4.783ZM0 9.68V4.898h-4.783V9.68H0Zm3.03 0v4.783h4.784V9.68H3.03Zm0-4.04V.857h-4.782V5.64h4.783Zm4.041 0v4.782h4.783V5.64H7.07Zm20.205-7.814H7.07v9.566h20.205v-9.566Zm4.783 7.814V2.609h-9.566v3.03h9.566Zm-4.783 4.782h4.041V.857h-4.041v9.565Zm-.741-4.782v4.04H36.1V5.64h-9.565Zm7.813-.742h-3.03v9.565h3.03V4.898Zm4.782 24.987V9.68h-9.565v20.205h9.565Zm-7.813 4.783h3.03v-9.566h-3.03v9.566Zm-4.782-4.783v4.041H36.1v-4.041h-9.565Zm4.782-.742h-4.041v9.566h4.041v-9.566Zm.742 7.814v-3.03h-9.566v3.03h9.566ZM7.07 41.739h20.205v-9.565H7.07v9.565ZM2.29 33.926v3.03h9.565v-3.03H2.289Zm4.782-4.783h-4.04v9.566h4.04v-9.566Zm.743 4.783v-4.041h-9.566v4.041h9.566ZM0 34.668h3.03v-9.566H0v9.566ZM-4.783 9.68v20.205h9.566V9.68h-9.566Zm7.814-4.782H0v9.565h3.03V4.898ZM7.814 9.68V5.64h-9.566v4.04h9.566Zm-4.783.742h4.04V.857h-4.04v9.565ZM2.289 2.61v3.03h9.565V2.61H2.289Z" mask="url(#a)"/>
</svg>